<svg xmlns="http://www.w3.org/2000/svg" width="352" height="352" overflow="hidden" fill-rule="evenodd" xmlns:v="https://vecta.io/nano"><path d="M0 176C0 78.798 78.798 0 176 0s176 78.798 176 176-78.798 176-176 176S0 273.202 0 176z" fill="#5865f2"/><path d="M252.131 104.487c-14.198-6.441-29.377-11.114-45.246-13.766-1.949 3.41-4.227 8.007-5.796 11.645-16.869-2.451-33.583-2.451-50.144 0-1.568-3.638-3.897-8.234-5.864-11.645-15.885 2.652-31.083 7.351-45.279 13.817-28.635 41.932-36.395 82.854-32.515 123.171 18.992 13.767 37.396 22.102 55.491 27.584 4.466-5.962 8.452-12.302 11.885-18.996-6.539-2.4-12.798-5.38-18.717-8.816 1.572-1.137 3.104-2.299 4.589-3.511 36.085 16.343 75.294 16.343 110.949 0 1.499 1.212 3.036 2.374 4.586 3.511-5.933 3.461-12.212 6.441-18.749 8.841 3.434 6.669 7.4 13.009 11.885 18.971 18.112-5.457 36.535-13.817 55.527-27.584 4.553-46.733-7.78-87.276-32.602-123.222zm-112.553 98.441c-10.831 0-19.717-9.826-19.717-21.749 0-11.948 8.693-21.775 19.717-21.775s19.905 9.801 19.717 21.775c.017 11.923-8.694 21.749-19.717 21.749zm72.86 0c-10.831 0-19.714-9.826-19.714-21.749 0-11.948 8.694-21.775 19.714-21.775s19.908 9.801 19.716 21.775c0 11.923-8.693 21.749-19.716 21.749z" fill="#fff"/></svg>